<?xml version="1.0" encoding="iso-8859-1"?>
<!-- Generator: Adobe Illustrator 19.0.0, SVG Export Plug-In . SVG Version: 6.00 Build 0)  -->
<svg version="1.1" id="Capa_1" xmlns="http://www.w3.org/2000/svg" xmlns:xlink="http://www.w3.org/1999/xlink" x="0px" y="0px"
	 viewBox="0 0 512 512" style="enable-background:new 0 0 512 512;" xml:space="preserve">
<path style="fill:#E9E3D5;" d="M299.071,214.64c-6.832-17.098-23.563-29.208-43.071-29.208s-36.239,12.111-43.071,29.209
	c-117.96,295.197-111.456,277.47-111.456,281.906c0,8.534,6.919,15.453,15.453,15.453h278.149c8.534,0,15.453-6.919,15.453-15.453
	C410.527,492.11,417.019,509.809,299.071,214.64z"/>
<path style="fill:#B6B0A2;" d="M278.705,191.391c-9.581,8.393-13.328,22.216-8.333,34.716
	c29.494,73.808,51.207,128.056,67.187,167.979c11.317,28.272,19.91,49.742,26.332,65.835c4.051,10.148-3.427,21.173-14.355,21.173
	H106.468c-6.567,16.838-4.745,13.237-5.029,16.052c-0.825,8.184,4.988,14.853,13.213,14.853h282.572
	c8.245,0,14.113-6.69,13.332-14.897c-0.628-6.595,10.551,22.937-111.485-282.462C295.126,204.769,287.878,196.567,278.705,191.391z"
	/>
<circle style="fill:#4D5967;" cx="256" cy="228.958" r="228.958"/>
<path style="fill:#35404A;" d="M394.623,46.738c-10.62,12.141-10.151,30.603,1.421,42.175c77.22,77.221,77.22,202.867,0,280.089
	c-77.221,77.219-202.867,77.219-280.089,0c-11.572-11.573-30.036-12.042-42.175-1.421c41.826,54.895,107.88,90.335,182.219,90.335
	c126.45,0,228.958-102.508,228.958-228.958C484.958,154.618,449.518,88.565,394.623,46.738z"/>
<path style="fill:#4FE267;" d="M430.873,228.958c0-64.603-35.216-121.132-87.456-151.41l-65.771,60.386L256,228.958l91.685,20.605
	L430.873,228.958z"/>
<path style="fill:#FFCF5D;" d="M300.16,59.755l-30.778,53.308c-5.947,10.302-20.817,10.302-26.764,0l-30.777-53.308
	c-15.332,4.006-29.858,10.027-43.257,17.792l13.627,78.791L256,228.958l87.417-151.41C330.017,69.781,315.491,63.761,300.16,59.755z
	"/>
<path style="fill:#FF983B;" d="M81.127,228.958l79.066,30.908L256,228.958l-87.417-151.41
	C116.342,107.826,81.127,164.355,81.127,228.958z"/>
<path style="fill:#FF5368;" d="M81.127,228.958c0,64.603,35.216,121.132,87.456,151.41l71.52-57.227l15.896-94.183H81.127z"/>
<path style="fill:#517AAC;" d="M168.583,380.368c25.733,14.915,55.595,23.463,87.417,23.463s61.684-8.548,87.417-23.463
	l-20.888-92.473L256,228.958L168.583,380.368z"/>
<path style="fill:#00F4F5;" d="M343.417,380.368c52.24-30.278,87.456-86.807,87.456-151.41H256L343.417,380.368z"/>
<path style="fill:#D9435B;" d="M168.583,380.368l26.346-21.081c-3.687-1.733-7.312-3.608-10.848-5.658
	c-13.969-8.097-31.636-4.027-40.751,8.932C151.191,369.201,159.631,375.179,168.583,380.368z"/>
<path style="fill:#3F5F94;" d="M343.417,380.368l-7.212-31.928c-2.693,1.815-5.454,3.549-8.286,5.19
	c-21.78,12.624-46.65,19.296-71.919,19.296s-50.139-6.672-71.919-19.295c-0.015-0.009-0.031-0.016-0.046-0.025l-15.452,26.763
	c25.733,14.914,55.595,23.462,87.417,23.462S317.684,395.283,343.417,380.368z"/>
<path style="fill:#00BD4F;" d="M430.873,228.958c0-64.603-35.216-121.132-87.456-151.41l-22.771,20.906
	c2.062,2.246,4.496,4.222,7.273,5.832c44.442,25.759,72.049,73.53,72.049,124.673c0,2.581-0.089,5.151-0.229,7.712L430.873,228.958z
	"/>
<path style="fill:#FF983B;" d="M315.406,64.501c-6.702,14.349-1.451,31.692,12.513,39.785c0.015,0.009,0.03,0.019,0.045,0.027
	l15.453-26.765C334.544,72.405,325.171,68.04,315.406,64.501z"/>
<path style="fill:#00D3D8;" d="M430.873,228.958h-30.905c0,51.124-27.589,98.88-72.005,124.645l15.453,26.765
	C395.658,350.09,430.873,293.56,430.873,228.958z"/>
<g>
</g>
<g>
</g>
<g>
</g>
<g>
</g>
<g>
</g>
<g>
</g>
<g>
</g>
<g>
</g>
<g>
</g>
<g>
</g>
<g>
</g>
<g>
</g>
<g>
</g>
<g>
</g>
<g>
</g>
</svg>
